<svg version="1.1" xmlns="http://www.w3.org/2000/svg" viewBox="0 0 1781.30078125 443.24765625" width="1781.30078125" height="443.24765625">
  <!-- svg-source:excalidraw -->
  
  <defs>
    <style class="style-fonts">
      @font-face {
        font-family: "Virgil";
        src: url("https://excalidraw.com/Virgil.woff2");
      }
      @font-face {
        font-family: "Cascadia";
        src: url("https://excalidraw.com/Cascadia.woff2");
      }
      @font-face {
        font-family: "Assistant";
        src: url("https://excalidraw.com/Assistant-Regular.woff2");
      }
    </style>
    
  </defs>
  <rect x="0" y="0" width="1781.30078125" height="443.24765625" fill="#ffffff"></rect><g stroke-linecap="round" transform="translate(848.97265625 193.265625) rotate(0 83.15234375 23.814453125)"><path d="M11.91 0 C59.17 0.59, 108.64 -0.29, 154.4 0 M11.91 0 C56.08 -1.25, 102.41 0.26, 154.4 0 M154.4 0 C164.28 -1.19, 164.38 4.41, 166.3 11.91 M154.4 0 C161.83 -1.39, 166.68 4.6, 166.3 11.91 M166.3 11.91 C166.98 22.34, 166.63 27.63, 166.3 35.72 M166.3 11.91 C166.74 18.29, 165.62 25.23, 166.3 35.72 M166.3 35.72 C164.95 45.45, 160.8 46.22, 154.4 47.63 M166.3 35.72 C165.13 41.61, 161.53 47.06, 154.4 47.63 M154.4 47.63 C112.17 50.85, 68.99 48.33, 11.91 47.63 M154.4 47.63 C104.69 47.28, 53.04 47.03, 11.91 47.63 M11.91 47.63 C5.67 46.26, -1.44 43.15, 0 35.72 M11.91 47.63 C2.84 45.52, 1.7 45.39, 0 35.72 M0 35.72 C1.17 28.79, -0.44 22.45, 0 11.91 M0 35.72 C-0.55 28.75, 0.9 20.81, 0 11.91 M0 11.91 C0.31 2.79, 3.54 -0.59, 11.91 0 M0 11.91 C0.32 4.34, 1.96 0.31, 11.91 0" stroke="#1e1e1e" stroke-width="2" fill="none"></path></g><g transform="translate(886.7750473022461 204.580078125) rotate(0 45.349952697753906 12.5)"><text x="45.349952697753906" y="0" font-family="Virgil, Segoe UI Emoji" font-size="20px" fill="#1e1e1e" text-anchor="middle" style="white-space: pre;" direction="ltr" dominant-baseline="text-before-edge">MovieList</text></g><g stroke-linecap="round" transform="translate(507.1015625 48.408203125) rotate(0 83.15234375 23.814453125)"><path d="M11.91 0 C49.08 1.81, 82.9 1.63, 154.4 0 M11.91 0 C41.46 0.15, 72.31 0.09, 154.4 0 M154.4 0 C162.44 -1.69, 164.91 5.69, 166.3 11.91 M154.4 0 C160.59 -1.8, 166.46 4.84, 166.3 11.91 M166.3 11.91 C166.59 19.94, 166.17 24.61, 166.3 35.72 M166.3 11.91 C166.08 17.9, 165.51 25.74, 166.3 35.72 M166.3 35.72 C167.26 43, 162.12 49.2, 154.4 47.63 M166.3 35.72 C164.76 42.04, 163.23 46.7, 154.4 47.63 M154.4 47.63 C115.86 45.81, 74.91 45.36, 11.91 47.63 M154.4 47.63 C112.66 47.72, 69.85 48.63, 11.91 47.63 M11.91 47.63 C2.11 48.91, 0.59 44.5, 0 35.72 M11.91 47.63 C3.04 49.55, -2.23 44.75, 0 35.72 M0 35.72 C0.79 24.35, 1.78 16.02, 0 11.91 M0 35.72 C-0.11 28.33, 0.36 21.47, 0 11.91 M0 11.91 C1.35 2.27, 3.32 1.87, 11.91 0 M0 11.91 C-1.83 4.9, 5.93 0.66, 11.91 0" stroke="#1e1e1e" stroke-width="2" fill="none"></path></g><g transform="translate(573.8339233398438 59.72265625) rotate(0 16.41998291015625 12.5)"><text x="16.41998291015625" y="0" font-family="Virgil, Segoe UI Emoji" font-size="20px" fill="#1e1e1e" text-anchor="middle" style="white-space: pre;" direction="ltr" dominant-baseline="text-before-edge">App</text></g><g stroke-linecap="round" transform="translate(179.1328125 185.625) rotate(0 88.748046875 28)"><path d="M14 0 C62.28 -0.1, 111.53 -0.21, 163.5 0 M14 0 C56.67 1.24, 100.47 -0.04, 163.5 0 M163.5 0 C170.93 -0.3, 179.01 3.31, 177.5 14 M163.5 0 C170.78 -0.6, 179.1 2.59, 177.5 14 M177.5 14 C177.14 21.02, 178.3 30, 177.5 42 M177.5 14 C178.75 20.25, 178.31 27.53, 177.5 42 M177.5 42 C176.63 50, 172.73 56.25, 163.5 56 M177.5 42 C175.43 52.6, 171.73 56.85, 163.5 56 M163.5 56 C112.13 57.86, 64.23 59.09, 14 56 M163.5 56 C125.89 55.02, 88.32 54.69, 14 56 M14 56 C4.98 54.36, -1.77 52.4, 0 42 M14 56 C2.83 54.17, -0.32 52.85, 0 42 M0 42 C1.87 33.8, 0.11 23.29, 0 14 M0 42 C0.4 35.19, 0.11 28.9, 0 14 M0 14 C-1.86 4.28, 3.35 1.07, 14 0 M0 14 C2.29 6.04, 3.52 -2.13, 14 0" stroke="#1e1e1e" stroke-width="2" fill="none"></path></g><g transform="translate(217.16089630126953 201.125) rotate(0 50.71996307373047 12.5)"><text x="50.71996307373047" y="0" font-family="Virgil, Segoe UI Emoji" font-size="20px" fill="#1e1e1e" text-anchor="middle" style="white-space: pre;" direction="ltr" dominant-baseline="text-before-edge">SearchBar</text></g><g transform="translate(10 255.2890625) rotate(0 139.609375 9.199999999999989)"><text x="0" y="0" font-family="Helvetica, Segoe UI Emoji" font-size="16px" fill="#1e1e1e" text-anchor="start" style="white-space: pre;" direction="ltr" dominant-baseline="text-before-edge">for user to check if a movie is in the list.</text></g><g transform="translate(17.05078125 285.7421875) rotate(0 188.96875 18.400000000000006)"><text x="0" y="0" font-family="Helvetica, Segoe UI Emoji" font-size="16px" fill="#1e1e1e" text-anchor="start" style="white-space: pre;" direction="ltr" dominant-baseline="text-before-edge">has a submit button </text><text x="0" y="18.4" font-family="Helvetica, Segoe UI Emoji" font-size="16px" fill="#1e1e1e" text-anchor="start" style="white-space: pre;" direction="ltr" dominant-baseline="text-before-edge">to display all matches (or partial matches) to that title.</text></g><g stroke-linecap="round" transform="translate(494.232421875 186.26953125) rotate(0 88.748046875 28)"><path d="M14 0 C67.6 2.88, 120.44 3.06, 163.5 0 M14 0 C71.12 0.85, 126.84 0.55, 163.5 0 M163.5 0 C171.94 1.68, 177.51 3.98, 177.5 14 M163.5 0 C170.94 -1.31, 176.53 3.62, 177.5 14 M177.5 14 C176.67 21.41, 176.86 29.5, 177.5 42 M177.5 14 C177.18 21.11, 176.97 28.39, 177.5 42 M177.5 42 C177.01 52.91, 171.77 54.89, 163.5 56 M177.5 42 C177.13 52.19, 171.47 57.37, 163.5 56 M163.5 56 C121.03 56.06, 82.07 59.07, 14 56 M163.5 56 C112.72 56.06, 60.13 57.28, 14 56 M14 56 C5.92 57.56, 0.57 52.44, 0 42 M14 56 C4.97 54.96, -0.47 52.14, 0 42 M0 42 C-2.05 36.89, -0.78 28.39, 0 14 M0 42 C-0.5 32.21, -0.67 21.97, 0 14 M0 14 C1.05 4.81, 6.17 1.41, 14 0 M0 14 C-0.04 5.69, 4.65 -1.41, 14 0" stroke="#1e1e1e" stroke-width="2" fill="none"></path></g><g transform="translate(502.5705337524414 201.76953125) rotate(0 80.4099349975586 12.5)"><text x="80.4099349975586" y="0" font-family="Virgil, Segoe UI Emoji" font-size="20px" fill="#1e1e1e" text-anchor="middle" style="white-space: pre;" direction="ltr" dominant-baseline="text-before-edge">Add Movie Input</text></g><g stroke-linecap="round" transform="translate(654.6171875 328.068359375) rotate(0 83.15234375 23.814453125)"><path d="M11.91 0 C47.53 -1.34, 85.73 -0.67, 154.4 0 M11.91 0 C62.81 0.34, 111.31 1.78, 154.4 0 M154.4 0 C163.14 0.23, 164.69 4.15, 166.3 11.91 M154.4 0 C160.74 1.84, 165.32 2.91, 166.3 11.91 M166.3 11.91 C165.17 19.76, 168.12 24.95, 166.3 35.72 M166.3 11.91 C165.14 20.4, 166.79 27.29, 166.3 35.72 M166.3 35.72 C165.96 44.01, 163.36 45.89, 154.4 47.63 M166.3 35.72 C167.6 42.56, 160.08 48.31, 154.4 47.63 M154.4 47.63 C117.73 46.21, 82.12 47.77, 11.91 47.63 M154.4 47.63 C122.76 45.45, 90.36 47.12, 11.91 47.63 M11.91 47.63 C5.88 47.29, -0.39 44.06, 0 35.72 M11.91 47.63 C3.71 48.03, 0.86 42.31, 0 35.72 M0 35.72 C-1.55 25.07, 1.67 16.57, 0 11.91 M0 35.72 C-0.78 25.79, 0.37 16.66, 0 11.91 M0 11.91 C0.59 3.67, 4.18 1.29, 11.91 0 M0 11.91 C0.33 4.8, 3.15 1.02, 11.91 0" stroke="#1e1e1e" stroke-width="2" fill="none"></path></g><g transform="translate(669.5195999145508 339.3828125) rotate(0 68.24993133544922 12.5)"><text x="68.24993133544922" y="0" font-family="Virgil, Segoe UI Emoji" font-size="20px" fill="#1e1e1e" text-anchor="middle" style="white-space: pre;" direction="ltr" dominant-baseline="text-before-edge">MovieListItem</text></g><g stroke-linecap="round" transform="translate(863.703125 326.935546875) rotate(0 83.15234375 23.814453125)"><path d="M11.91 0 C62.92 0.76, 115.34 -1.9, 154.4 0 M11.91 0 C44.81 2.17, 78.3 1.62, 154.4 0 M154.4 0 C162.55 1.61, 165.23 5.96, 166.3 11.91 M154.4 0 C162.13 0.2, 165.68 2.57, 166.3 11.91 M166.3 11.91 C168.14 19.22, 164.57 28.98, 166.3 35.72 M166.3 11.91 C167.07 19.84, 167.05 28.22, 166.3 35.72 M166.3 35.72 C165.86 44.61, 161.4 47.07, 154.4 47.63 M166.3 35.72 C164.18 45.95, 163.68 46.18, 154.4 47.63 M154.4 47.63 C98.83 48.27, 44.85 47.01, 11.91 47.63 M154.4 47.63 C111.1 48.36, 66.33 49.3, 11.91 47.63 M11.91 47.63 C2.97 46.97, -0.48 43.7, 0 35.72 M11.91 47.63 C5.61 48.85, -1.13 43.58, 0 35.72 M0 35.72 C-0.41 28.92, -1.58 26.96, 0 11.91 M0 35.72 C-0.28 27.47, -0.36 19.72, 0 11.91 M0 11.91 C-0.78 3.45, 2.55 1.66, 11.91 0 M0 11.91 C1.11 5.18, 4.78 -1.79, 11.91 0" stroke="#1e1e1e" stroke-width="2" fill="none"></path></g><g transform="translate(878.6055374145508 338.25) rotate(0 68.24993133544922 12.5)"><text x="68.24993133544922" y="0" font-family="Virgil, Segoe UI Emoji" font-size="20px" fill="#1e1e1e" text-anchor="middle" style="white-space: pre;" direction="ltr" dominant-baseline="text-before-edge">MovieListItem</text></g><g stroke-linecap="round" transform="translate(1066.5859375 329.009765625) rotate(0 83.15234375 23.814453125)"><path d="M11.91 0 C67.02 -0.29, 119.38 1.02, 154.4 0 M11.91 0 C66.04 -1.33, 120.07 -2.02, 154.4 0 M154.4 0 C163.62 -0.5, 165.1 5.86, 166.3 11.91 M154.4 0 C160.77 -1.93, 165.99 4.91, 166.3 11.91 M166.3 11.91 C165.92 20.9, 166.46 26.64, 166.3 35.72 M166.3 11.91 C165.27 21.18, 166.78 27.83, 166.3 35.72 M166.3 35.72 C168.05 42.16, 164.26 47.23, 154.4 47.63 M166.3 35.72 C165.47 44.57, 160.05 47.76, 154.4 47.63 M154.4 47.63 C109.7 46.12, 67.94 47, 11.91 47.63 M154.4 47.63 C117.08 48.19, 77.83 47.62, 11.91 47.63 M11.91 47.63 C2.18 48.1, -0.26 43.31, 0 35.72 M11.91 47.63 C1.92 45.87, 1.47 44.67, 0 35.72 M0 35.72 C-0.19 27.17, 0.68 18.94, 0 11.91 M0 35.72 C0.65 29.72, 0.52 21.9, 0 11.91 M0 11.91 C-1.83 4.51, 2.84 -1.17, 11.91 0 M0 11.91 C0.69 4.5, 4.6 -1.03, 11.91 0" stroke="#1e1e1e" stroke-width="2" fill="none"></path></g><g transform="translate(1081.4883499145508 340.32421875) rotate(0 68.24993133544922 12.5)"><text x="68.24993133544922" y="0" font-family="Virgil, Segoe UI Emoji" font-size="20px" fill="#1e1e1e" text-anchor="middle" style="white-space: pre;" direction="ltr" dominant-baseline="text-before-edge">MovieListItem</text></g><g stroke-linecap="round"><g transform="translate(571.8359375 92.7890625) rotate(0 -147.517578125 45.755859375)"><path d="M0.85 -0.04 C-48.21 15.11, -246.09 76.13, -295.35 91.55 M-0.16 -1.1 C-49.32 14.2, -247.27 77.81, -296.47 93.1" stroke="#1e1e1e" stroke-width="2" fill="none"></path></g><g transform="translate(571.8359375 92.7890625) rotate(0 -147.517578125 45.755859375)"><path d="M-276.65 77.86 C-280.95 80.79, -285.13 85.12, -296.47 93.1 M-276.65 77.86 C-283.27 83.89, -291.17 88.67, -296.47 93.1" stroke="#1e1e1e" stroke-width="2" fill="none"></path></g><g transform="translate(571.8359375 92.7890625) rotate(0 -147.517578125 45.755859375)"><path d="M-271.49 94.16 C-276.99 93.58, -282.3 94.37, -296.47 93.1 M-271.49 94.16 C-280.1 94, -289.96 92.59, -296.47 93.1" stroke="#1e1e1e" stroke-width="2" fill="none"></path></g></g><mask></mask><g stroke-linecap="round"><g transform="translate(573.51171875 93.4609375) rotate(0 0.2890625 48.2578125)"><path d="M0.66 0.59 C0.74 16.53, 0.87 80.38, 1.05 96.28 M-0.46 -0.14 C-0.55 15.92, 0.01 81.5, 0.35 97.7" stroke="#1e1e1e" stroke-width="2" fill="none"></path></g><g transform="translate(573.51171875 93.4609375) rotate(0 0.2890625 48.2578125)"><path d="M-8.52 74.33 C-4.31 83.19, -2.6 92.5, 0.35 97.7 M-8.52 74.33 C-6.34 79.47, -3.89 86.15, 0.35 97.7" stroke="#1e1e1e" stroke-width="2" fill="none"></path></g><g transform="translate(573.51171875 93.4609375) rotate(0 0.2890625 48.2578125)"><path d="M8.58 74.09 C6.84 83.14, 2.61 92.53, 0.35 97.7 M8.58 74.09 C6.36 79.34, 4.41 86.09, 0.35 97.7" stroke="#1e1e1e" stroke-width="2" fill="none"></path></g></g><mask></mask><g stroke-linecap="round"><g transform="translate(570.21875 93.01171875) rotate(0 189.87109375 48.68359375)"><path d="M0.65 0.39 C63.7 16.41, 315.68 81.13, 379 97.17 M-0.47 -0.46 C62.91 16.27, 317.87 82.27, 381.33 98.61" stroke="#1e1e1e" stroke-width="2" fill="none"></path></g><g transform="translate(570.21875 93.01171875) rotate(0 189.87109375 48.68359375)"><path d="M356.44 101.01 C365.97 98.78, 373.92 100.53, 381.33 98.61 M356.44 101.01 C361.65 99.67, 368.59 100.36, 381.33 98.61" stroke="#1e1e1e" stroke-width="2" fill="none"></path></g><g transform="translate(570.21875 93.01171875) rotate(0 189.87109375 48.68359375)"><path d="M360.72 84.45 C368.86 88.18, 375.28 95.86, 381.33 98.61 M360.72 84.45 C365.07 87.08, 370.97 91.77, 381.33 98.61" stroke="#1e1e1e" stroke-width="2" fill="none"></path></g></g><mask></mask><g stroke-linecap="round"><g transform="translate(942.234375 242.171875) rotate(0 -91.626953125 41.34765625)"><path d="M-0.14 0.27 C-30.9 14.21, -153.66 69.14, -183.99 82.92 M-1.67 -0.63 C-32.1 12.98, -151.57 66.75, -181.66 80.91" stroke="#1e1e1e" stroke-width="2" fill="none"></path></g><g transform="translate(942.234375 242.171875) rotate(0 -91.626953125 41.34765625)"><path d="M-163.87 63.35 C-169.75 68.26, -176.06 77.59, -181.66 80.91 M-163.87 63.35 C-168.75 69.26, -175.08 75.48, -181.66 80.91" stroke="#1e1e1e" stroke-width="2" fill="none"></path></g><g transform="translate(942.234375 242.171875) rotate(0 -91.626953125 41.34765625)"><path d="M-156.74 78.89 C-165.03 78.35, -173.84 82.24, -181.66 80.91 M-156.74 78.89 C-163.9 79.82, -172.51 81.07, -181.66 80.91" stroke="#1e1e1e" stroke-width="2" fill="none"></path></g></g><mask></mask><g stroke-linecap="round"><g transform="translate(944.90234375 239.08984375) rotate(0 1.60546875 43.193359375)"><path d="M-0.53 -0.79 C-0.01 13.9, 3.23 72.77, 4.03 87.12 M1.39 1.41 C1.75 15.84, 3.07 71.27, 3.51 85.39" stroke="#1e1e1e" stroke-width="2" fill="none"></path></g><g transform="translate(944.90234375 239.08984375) rotate(0 1.60546875 43.193359375)"><path d="M-5.67 62.13 C-3.76 72.19, 2.2 81.19, 3.51 85.39 M-5.67 62.13 C-4.22 68.11, -1.91 71.89, 3.51 85.39" stroke="#1e1e1e" stroke-width="2" fill="none"></path></g><g transform="translate(944.90234375 239.08984375) rotate(0 1.60546875 43.193359375)"><path d="M11.42 61.67 C6.97 71.82, 6.57 80.99, 3.51 85.39 M11.42 61.67 C9.25 67.61, 7.92 71.49, 3.51 85.39" stroke="#1e1e1e" stroke-width="2" fill="none"></path></g></g><mask></mask><g stroke-linecap="round"><g transform="translate(949.70703125 243.96484375) rotate(0 108.115234375 40.806640625)"><path d="M0.22 -1.08 C36.22 12.36, 181.3 67.45, 217.15 81.38 M-1.13 0.97 C34.7 14.53, 180.2 69.51, 216.68 82.8" stroke="#1e1e1e" stroke-width="2" fill="none"></path></g><g transform="translate(949.70703125 243.96484375) rotate(0 108.115234375 40.806640625)"><path d="M191.68 82.62 C199.67 84.17, 210.87 81.2, 216.68 82.8 M191.68 82.62 C200.31 82.12, 210.05 82.17, 216.68 82.8" stroke="#1e1e1e" stroke-width="2" fill="none"></path></g><g transform="translate(949.70703125 243.96484375) rotate(0 108.115234375 40.806640625)"><path d="M197.64 66.59 C203.39 74.43, 212.26 77.74, 216.68 82.8 M197.64 66.59 C204.04 72.13, 211.54 78.21, 216.68 82.8" stroke="#1e1e1e" stroke-width="2" fill="none"></path></g></g><mask></mask><g transform="translate(1032.42578125 201.9140625) rotate(0 227.1171875 18.400000000000006)"><text x="0" y="0" font-family="Helvetica, Segoe UI Emoji" font-size="16px" fill="#1e1e1e" text-anchor="start" style="white-space: pre;" direction="ltr" dominant-baseline="text-before-edge"> two buttons :watched &amp; ToWatch</text><text x="0" y="18.4" font-family="Helvetica, Segoe UI Emoji" font-size="16px" fill="#1e1e1e" text-anchor="start" style="white-space: pre;" direction="ltr" dominant-baseline="text-before-edge"> toggle between a list of 'watched' movies and movies 'to watch'.</text></g><g transform="translate(1497.76171875 10) rotate(0 136.76953125 9.200000000000003)"><text x="0" y="0" font-family="Helvetica, Segoe UI Emoji" font-size="16px" fill="#1e1e1e" text-anchor="start" style="white-space: pre;" direction="ltr" dominant-baseline="text-before-edge">the user to toggle a 'watched' property.</text></g><g transform="translate(855.95703125 414.84765625) rotate(0 160.3359375 9.199999999999989)"><text x="0" y="0" font-family="Helvetica, Segoe UI Emoji" font-size="16px" fill="#1e1e1e" text-anchor="start" style="white-space: pre;" direction="ltr" dominant-baseline="text-before-edge">Button for user to toggle a 'watched' property.</text></g><g transform="translate(956.0859375 161.97265625) rotate(0 203.12890625 9.199999999999989)"><text x="0" y="0" font-family="Helvetica, Segoe UI Emoji" font-size="16px" fill="#e03131" text-anchor="start" style="white-space: pre;" direction="ltr" dominant-baseline="text-before-edge">display a message when "no movie by that name found"  </text></g></svg>